<?xml version="1.0" encoding="UTF-8"?>
<svg version="1.1" xmlns="http://www.w3.org/2000/svg" width="346" height="342">
<path d="M0 0 C23.10467134 -0.07007109 46.20932517 -0.12297889 69.31408119 -0.15543652 C80.04194312 -0.17090751 90.76973903 -0.19200152 101.49755859 -0.22631836 C110.84757385 -0.25621354 120.19754129 -0.27557331 129.54760301 -0.28226548 C134.49871067 -0.28617753 139.44968156 -0.29537629 144.40074539 -0.31719017 C149.06118018 -0.33755715 153.7214219 -0.34383335 158.38189697 -0.33932304 C160.09192326 -0.34014815 161.80195603 -0.34611255 163.51194382 -0.35761642 C165.84850065 -0.37256405 168.18433054 -0.36894564 170.52090454 -0.36076355 C171.82800699 -0.36352893 173.13510944 -0.36629431 174.48182106 -0.36914349 C178.27574445 0.02893237 180.72631308 1.09018431 184 3 C184 4.32 184 5.64 184 7 C184.66 7 185.32 7 186 7 C186 12.61 186 18.22 186 24 C183.23307292 24.22786458 180.46614583 24.45572917 177.69921875 24.68359375 C174.90624401 24.91812559 174.90624401 24.91812559 172 26 C172.00523682 26.86802246 172.01047363 27.73604492 172.01586914 28.63037109 C172.03289862 31.84700273 172.04544408 35.06361141 172.05493164 38.28027344 C172.0599643 39.67318477 172.06679098 41.0660908 172.07543945 42.45898438 C172.08755152 44.45961246 172.09270412 46.46027888 172.09765625 48.4609375 C172.10289307 49.66540527 172.10812988 50.86987305 172.11352539 52.11083984 C172 55 172 55 171 57 C171.99 57 172.98 57 174 57 C174 57.99 174 58.98 174 60 C177.96 60 181.92 60 186 60 C186 86.73 186 113.46 186 141 C184.68 141 183.36 141 182 141 C182 140.34 182 139.68 182 139 C180.02 139 178.04 139 176 139 C176 139.66 176 140.32 176 141 C174.68 141 173.36 141 172 141 C172.00523682 141.86802246 172.01047363 142.73604492 172.01586914 143.63037109 C172.03289862 146.84700273 172.04544408 150.06361141 172.05493164 153.28027344 C172.0599643 154.67318477 172.06679098 156.0660908 172.07543945 157.45898438 C172.08755152 159.45961246 172.09270412 161.46027888 172.09765625 163.4609375 C172.10289307 164.66540527 172.10812988 165.86987305 172.11352539 167.11083984 C172 170 172 170 171 172 C171.99 172 172.98 172 174 172 C174 172.66 174 173.32 174 174 C177.96 174 181.92 174 186 174 C186 178.95 186 183.9 186 189 C185.01 189 184.02 189 183 189 C183 189.66 183 190.32 183 191 C182.34 191 181.68 191 181 191 C181 191.66 181 192.32 181 193 C179.94363403 194.60119057 179.94363403 194.60119057 178 196 C174.85934448 196.37752342 174.85934448 196.37752342 170.90185547 196.38095093 C170.17453657 196.3856309 169.44721767 196.39031087 168.69785881 196.39513266 C166.2541177 196.40712468 163.81093304 196.39760932 161.3671875 196.38818359 C159.61793693 196.39224744 157.86868892 196.39758826 156.1194458 196.40411377 C151.36331159 196.41781548 146.60737214 196.41247697 141.85123444 196.40297651 C136.87982142 196.39539468 131.90842537 196.40242141 126.93701172 196.40713501 C118.58753457 196.41259687 110.23813696 196.40538965 101.88867188 196.39111328 C92.22799493 196.37478595 82.5675079 196.38007415 72.90683556 196.3965925 C64.62058064 196.4101951 56.33438297 196.41213303 48.0481205 196.40427649 C43.09550487 196.39959322 38.14297858 196.39899304 33.19036865 196.40888596 C28.53478836 196.41753553 23.87945354 196.41157061 19.22389984 196.39420319 C17.51262571 196.39022757 15.80133102 196.39139069 14.090065 196.39799118 C11.75914348 196.40615458 9.42901512 196.39594904 7.09814453 196.38095093 C5.79217316 196.37981985 4.48620178 196.37868877 3.14065552 196.37752342 C0 196 0 196 -1.94363403 194.60119057 C-3 193 -3 193 -3 191 C-3.66 191 -4.32 191 -5 191 C-5 190.34 -5 189.68 -5 189 C-5.99 189 -6.98 189 -8 189 C-8 128.94 -8 68.88 -8 7 C-7.34 6.67 -6.68 6.34 -6 6 C-5.34786708 3.97536745 -5.34786708 3.97536745 -5 2 C-3.35 2 -1.7 2 0 2 C0 1.34 0 0.68 0 0 Z M85 45 C84.67 45.66 84.34 46.32 84 47 C81.49609375 47.4140625 81.49609375 47.4140625 78.4375 47.625 C76.91962891 47.73714844 76.91962891 47.73714844 75.37109375 47.8515625 C74.58863281 47.90054688 73.80617187 47.94953125 73 48 C73 48.66 73 49.32 73 50 C70.69 50 68.38 50 66 50 C66 50.66 66 51.32 66 52 C64.35 52 62.7 52 61 52 C61 52.99 61 53.98 61 55 C60.34 55 59.68 55 59 55 C59 55.66 59 56.32 59 57 C57.35 57 55.7 57 54 57 C54 57.66 54 58.32 54 59 C53.34 59 52.68 59 52 59 C52 59.99 52 60.98 52 62 C51.01 62 50.02 62 49 62 C49 62.66 49 63.32 49 64 C48.34 64 47.68 64 47 64 C47 64.99 47 65.98 47 67 C46.01 67.33 45.02 67.66 44 68 C44.33 68.99 44.66 69.98 45 71 C44.01 71 43.02 71 42 71 C42 71.99 42 72.98 42 74 C41.34 74 40.68 74 40 74 C40 75.65 40 77.3 40 79 C38.515 79.495 38.515 79.495 37 80 C36.67 80.99 36.34 81.98 36 83 C35.505 83.495 35.505 83.495 35 84 C34.92820036 85.51928038 34.91607993 87.04167482 34.9375 88.5625 C34.94652344 89.38878906 34.95554688 90.21507812 34.96484375 91.06640625 C34.97644531 91.70449219 34.98804688 92.34257812 35 93 C34.34 93 33.68 93 33 93 C33 98.61 33 104.22 33 110 C33.66 110 34.32 110 35 110 C35 112.97 35 115.94 35 119 C35.99 119 36.98 119 38 119 C38 120.65 38 122.3 38 124 C38.66 124 39.32 124 40 124 C40 125.65 40 127.3 40 129 C40.66 129 41.32 129 42 129 C42 130.65 42 132.3 42 134 C43.65 134.66 45.3 135.32 47 136 C47 136.66 47 137.32 47 138 C47.66 138 48.32 138 49 138 C49 138.99 49 139.98 49 141 C49.66 141 50.32 141 51 141 C51 141.66 51 142.32 51 143 C51.99 143 52.98 143 54 143 C54 143.99 54 144.98 54 146 C55.65 146.66 57.3 147.32 59 148 C59 148.66 59 149.32 59 150 C60.65 150 62.3 150 64 150 C64 150.99 64 151.98 64 153 C65.65 153 67.3 153 69 153 C69 153.66 69 154.32 69 155 C71.64 155 74.28 155 77 155 C77.33 155.99 77.66 156.98 78 158 C85.26 158 92.52 158 100 158 C100.495 156.515 100.495 156.515 101 155 C103.64 155 106.28 155 109 155 C109 154.34 109 153.68 109 153 C110.65 153 112.3 153 114 153 C114.33 152.34 114.66 151.68 115 151 C115.99 150.67 116.98 150.34 118 150 C118 149.34 118 148.68 118 148 C119.32 148 120.64 148 122 148 C122 147.34 122 146.68 122 146 C122.66 146 123.32 146 124 146 C124 145.01 124 144.02 124 143 C124.99 143 125.98 143 127 143 C127 142.34 127 141.68 127 141 C127.66 141 128.32 141 129 141 C129 140.01 129 139.02 129 138 C129.66 138 130.32 138 131 138 C131 137.34 131 136.68 131 136 C131.99 136 132.98 136 134 136 C134 135.34 134 134.68 134 134 C134.66 134 135.32 134 136 134 C136 132.35 136 130.7 136 129 C136.66 129 137.32 129 138 129 C138.185625 128.0409375 138.185625 128.0409375 138.375 127.0625 C138.58125 126.381875 138.7875 125.70125 139 125 C139.66 124.67 140.32 124.34 141 124 C141 122.35 141 120.7 141 119 C141.66 119 142.32 119 143 119 C143.144375 117.700625 143.28875 116.40125 143.4375 115.0625 C143.875 111.125 143.875 111.125 145 110 C145.07325168 107.13732433 145.09238205 104.299281 145.0625 101.4375 C145.05798828 100.63119141 145.05347656 99.82488281 145.04882812 98.99414062 C145.03700518 96.99606244 145.01906914 94.99802217 145 93 C144.34 93 143.68 93 143 93 C143 89.7 143 86.4 143 83 C142.34 83 141.68 83 141 83 C141 81.68 141 80.36 141 79 C140.01 79 139.02 79 138 79 C138 77.35 138 75.7 138 74 C137.34 74 136.68 74 136 74 C136 73.01 136 72.02 136 71 C135.01 71 134.02 71 133 71 C133.33 69.68 133.66 68.36 134 67 C133.01 67 132.02 67 131 67 C131 66.01 131 65.02 131 64 C130.34 64 129.68 64 129 64 C129 63.34 129 62.68 129 62 C128.34 62 127.68 62 127 62 C126.505 60.515 126.505 60.515 126 59 C125.34 59 124.68 59 124 59 C124 58.34 124 57.68 124 57 C122.35 57 120.7 57 119 57 C119 56.34 119 55.68 119 55 C118.34 55 117.68 55 117 55 C117 54.01 117 53.02 117 52 C115.35 52 113.7 52 112 52 C112 51.34 112 50.68 112 50 C109.69 50 107.38 50 105 50 C105 49.34 105 48.68 105 48 C103.82630859 47.92652344 103.82630859 47.92652344 102.62890625 47.8515625 C101.61699219 47.77679688 100.60507813 47.70203125 99.5625 47.625 C98.04849609 47.52058594 98.04849609 47.52058594 96.50390625 47.4140625 C95.67761719 47.27742188 94.85132813 47.14078125 94 47 C93.505 46.01 93.505 46.01 93 45 C90.36 45 87.72 45 85 45 Z " fill="#FA7275" transform="translate(81,61)"/>
<path d="M0 0 C0.91364104 -0.00155999 1.82728209 -0.00311998 2.76860923 -0.00472724 C5.81911931 -0.00870441 8.8695793 -0.00556029 11.92008972 -0.00241089 C14.11176584 -0.00376641 16.30344173 -0.0055472 18.49511719 -0.00772095 C24.44147114 -0.01227808 30.38780774 -0.01051255 36.334162 -0.00734186 C42.56216112 -0.00480844 48.79015877 -0.00715863 55.01815796 -0.00872803 C66.14995367 -0.01066376 77.28174256 -0.00755685 88.41353693 -0.00246869 C98.49189698 0.00199553 108.57024551 0.00122553 118.64860535 -0.00338745 C130.36641506 -0.00874836 142.08421804 -0.01072573 153.80202883 -0.00777519 C159.99947968 -0.00621854 166.19692261 -0.0060018 172.39437294 -0.00931168 C178.2244756 -0.01220781 184.05455658 -0.01018268 189.88465691 -0.00441742 C192.02032561 -0.00309898 194.15599615 -0.00346833 196.29166412 -0.00568008 C199.21521905 -0.00842781 202.13870526 -0.00496636 205.06225586 0 C205.89992503 -0.00223072 206.73759419 -0.00446144 207.60064727 -0.00675976 C213.35739382 0.01210269 219.00420956 0.46398947 224.72160339 1.12698364 C224.72160339 2.11698364 224.72160339 3.10698364 224.72160339 4.12698364 C225.38160339 4.12698364 226.04160339 4.12698364 226.72160339 4.12698364 C226.72160339 4.78698364 226.72160339 5.44698364 226.72160339 6.12698364 C227.71160339 6.12698364 228.70160339 6.12698364 229.72160339 6.12698364 C229.72160339 6.78698364 229.72160339 7.44698364 229.72160339 8.12698364 C230.38160339 8.45698364 231.04160339 8.78698364 231.72160339 9.12698364 C233.72160339 11.12698364 233.72160339 11.12698364 233.84660339 13.75198364 C233.80535339 14.53573364 233.76410339 15.31948364 233.72160339 16.12698364 C234.71160339 16.12698364 235.70160339 16.12698364 236.72160339 16.12698364 C236.72160339 93.34698364 236.72160339 170.56698364 236.72160339 250.12698364 C235.73160339 250.12698364 234.74160339 250.12698364 233.72160339 250.12698364 C233.72160339 251.77698364 233.72160339 253.42698364 233.72160339 255.12698364 C233.06160339 255.12698364 232.40160339 255.12698364 231.72160339 255.12698364 C231.72160339 255.78698364 231.72160339 256.44698364 231.72160339 257.12698364 C230.73160339 257.12698364 229.74160339 257.12698364 228.72160339 257.12698364 C228.72160339 258.11698364 228.72160339 259.10698364 228.72160339 260.12698364 C228.06160339 260.12698364 227.40160339 260.12698364 226.72160339 260.12698364 C226.72160339 260.78698364 226.72160339 261.44698364 226.72160339 262.12698364 C225.40160339 262.12698364 224.08160339 262.12698364 222.72160339 262.12698364 C222.72160339 262.78698364 222.72160339 263.44698364 222.72160339 264.12698364 C144.18160339 264.12698364 65.64160339 264.12698364 -15.27839661 264.12698364 C-15.27839661 263.46698364 -15.27839661 262.80698364 -15.27839661 262.12698364 C-16.59839661 262.12698364 -17.91839661 262.12698364 -19.27839661 262.12698364 C-19.27839661 261.46698364 -19.27839661 260.80698364 -19.27839661 260.12698364 C-19.93839661 260.12698364 -20.59839661 260.12698364 -21.27839661 260.12698364 C-21.27839661 259.13698364 -21.27839661 258.14698364 -21.27839661 257.12698364 C-21.93839661 257.12698364 -22.59839661 257.12698364 -23.27839661 257.12698364 C-23.27839661 256.46698364 -23.27839661 255.80698364 -23.27839661 255.12698364 C-24.26839661 255.12698364 -25.25839661 255.12698364 -26.27839661 255.12698364 C-26.27839661 253.47698364 -26.27839661 251.82698364 -26.27839661 250.12698364 C-27.26839661 250.12698364 -28.25839661 250.12698364 -29.27839661 250.12698364 C-29.27839661 172.90698364 -29.27839661 95.68698364 -29.27839661 16.12698364 C-28.28839661 16.12698364 -27.29839661 16.12698364 -26.27839661 16.12698364 C-26.34027161 14.95135864 -26.34027161 14.95135864 -26.40339661 13.75198364 C-26.27839661 11.12698364 -26.27839661 11.12698364 -24.27839661 9.12698364 C-23.61839661 8.79698364 -22.95839661 8.46698364 -22.27839661 8.12698364 C-22.27839661 7.46698364 -22.27839661 6.80698364 -22.27839661 6.12698364 C-21.28839661 6.12698364 -20.29839661 6.12698364 -19.27839661 6.12698364 C-19.27839661 5.46698364 -19.27839661 4.80698364 -19.27839661 4.12698364 C-17.50940965 1.52553224 -16.35725965 1.14207343 -13.23720264 0.54507637 C-8.79734762 0.07617967 -4.45995913 -0.01178278 0 0 Z M11.72160339 30.12698364 C11.72160339 30.78698364 11.72160339 31.44698364 11.72160339 32.12698364 C10.73160339 32.12698364 9.74160339 32.12698364 8.72160339 32.12698364 C8.72160339 33.11698364 8.72160339 34.10698364 8.72160339 35.12698364 C8.06160339 35.12698364 7.40160339 35.12698364 6.72160339 35.12698364 C6.72160339 35.78698364 6.72160339 36.44698364 6.72160339 37.12698364 C5.07160339 37.78698364 3.42160339 38.44698364 1.72160339 39.12698364 C1.72160339 40.77698364 1.72160339 42.42698364 1.72160339 44.12698364 C1.06160339 44.12698364 0.40160339 44.12698364 -0.27839661 44.12698364 C-0.32512449 66.82324508 -0.36038933 89.51949859 -0.38202095 112.21579838 C-0.392332 122.7541623 -0.40638909 133.29249633 -0.42927551 143.83084106 C-0.4492146 153.01642659 -0.46211429 162.20199046 -0.4665736 171.38759702 C-0.46918009 176.2509542 -0.47530299 181.11424943 -0.48985672 185.97758675 C-0.50344878 190.55673995 -0.50761594 195.1358058 -0.50461197 199.71497726 C-0.5051614 201.39393908 -0.50912916 203.07290387 -0.51680756 204.75184822 C-0.52679427 207.04851377 -0.52435201 209.34485175 -0.51890564 211.64152527 C-0.52074923 212.9255829 -0.52259281 214.20964052 -0.52449226 215.53260899 C-0.25988352 219.3973784 0.53002564 222.45879102 1.72160339 226.12698364 C2.38160339 226.12698364 3.04160339 226.12698364 3.72160339 226.12698364 C3.72160339 226.78698364 3.72160339 227.44698364 3.72160339 228.12698364 C4.71160339 228.12698364 5.70160339 228.12698364 6.72160339 228.12698364 C6.72160339 229.11698364 6.72160339 230.10698364 6.72160339 231.12698364 C7.38160339 231.12698364 8.04160339 231.12698364 8.72160339 231.12698364 C8.72160339 231.78698364 8.72160339 232.44698364 8.72160339 233.12698364 C10.37160339 233.12698364 12.02160339 233.12698364 13.72160339 233.12698364 C13.72160339 234.11698364 13.72160339 235.10698364 13.72160339 236.12698364 C73.12160339 236.12698364 132.52160339 236.12698364 193.72160339 236.12698364 C194.05160339 235.46698364 194.38160339 234.80698364 194.72160339 234.12698364 C196.78410339 233.50198364 196.78410339 233.50198364 198.72160339 233.12698364 C198.72160339 232.46698364 198.72160339 231.80698364 198.72160339 231.12698364 C199.38160339 231.12698364 200.04160339 231.12698364 200.72160339 231.12698364 C200.72160339 230.13698364 200.72160339 229.14698364 200.72160339 228.12698364 C201.71160339 228.12698364 202.70160339 228.12698364 203.72160339 228.12698364 C203.72160339 227.46698364 203.72160339 226.80698364 203.72160339 226.12698364 C204.38160339 226.12698364 205.04160339 226.12698364 205.72160339 226.12698364 C205.72160339 224.47698364 205.72160339 222.82698364 205.72160339 221.12698364 C206.38160339 221.12698364 207.04160339 221.12698364 207.72160339 221.12698364 C207.72160339 217.16698364 207.72160339 213.20698364 207.72160339 209.12698364 C211.68160339 209.12698364 215.64160339 209.12698364 219.72160339 209.12698364 C219.72160339 208.46698364 219.72160339 207.80698364 219.72160339 207.12698364 C220.71160339 207.12698364 221.70160339 207.12698364 222.72160339 207.12698364 C222.72160339 196.89698364 222.72160339 186.66698364 222.72160339 176.12698364 C221.40160339 175.46698364 220.08160339 174.80698364 218.72160339 174.12698364 C218.06160339 173.79698364 217.40160339 173.46698364 216.72160339 173.12698364 C213.81259092 173.4906102 211.35361141 173.81097963 208.72160339 175.12698364 C208.39160339 148.72698364 208.06160339 122.32698364 207.72160339 95.12698364 C211.68160339 95.12698364 215.64160339 95.12698364 219.72160339 95.12698364 C219.72160339 94.13698364 219.72160339 93.14698364 219.72160339 92.12698364 C220.71160339 92.12698364 221.70160339 92.12698364 222.72160339 92.12698364 C222.72160339 81.89698364 222.72160339 71.66698364 222.72160339 61.12698364 C221.73160339 61.12698364 220.74160339 61.12698364 219.72160339 61.12698364 C219.72160339 60.46698364 219.72160339 59.80698364 219.72160339 59.12698364 C215.76160339 59.12698364 211.80160339 59.12698364 207.72160339 59.12698364 C207.72160339 54.17698364 207.72160339 49.22698364 207.72160339 44.12698364 C207.06160339 44.12698364 206.40160339 44.12698364 205.72160339 44.12698364 C205.72160339 42.47698364 205.72160339 40.82698364 205.72160339 39.12698364 C205.06160339 39.12698364 204.40160339 39.12698364 203.72160339 39.12698364 C203.72160339 38.46698364 203.72160339 37.80698364 203.72160339 37.12698364 C202.73160339 37.12698364 201.74160339 37.12698364 200.72160339 37.12698364 C200.72160339 36.46698364 200.72160339 35.80698364 200.72160339 35.12698364 C200.06160339 35.12698364 199.40160339 35.12698364 198.72160339 35.12698364 C198.72160339 34.13698364 198.72160339 33.14698364 198.72160339 32.12698364 C198.06160339 32.12698364 197.40160339 32.12698364 196.72160339 32.12698364 C196.72160339 31.46698364 196.72160339 30.80698364 196.72160339 30.12698364 C135.67160339 30.12698364 74.62160339 30.12698364 11.72160339 30.12698364 Z " fill="#FA7275" transform="translate(66.27839660644531,25.873016357421875)"/>
<path d="M0 0 C2.97 0 5.94 0 9 0 C10.36952673 2.73905345 10.12621361 4.97087332 10 8 C9.67 8.66 9.34 9.32 9 10 C11.64 10 14.28 10 17 10 C17 6.7 17 3.4 17 0 C19.97 0 22.94 0 26 0 C26 0.99 26 1.98 26 3 C28.31 3 30.62 3 33 3 C33 3.66 33 4.32 33 5 C34.65 5 36.3 5 38 5 C38 5.99 38 6.98 38 8 C39.65 8 41.3 8 43 8 C43 8.66 43 9.32 43 10 C43.66 10 44.32 10 45 10 C45 12.31 45 14.62 45 17 C44.34 17 43.68 17 43 17 C43 17.66 43 18.32 43 19 C41.5 20.625 41.5 20.625 40 22 C40.99 22 41.98 22 43 22 C43 22.66 43 23.32 43 24 C43.99 24 44.98 24 46 24 C46 23.34 46 22.68 46 22 C46.66 22 47.32 22 48 22 C48 21.01 48 20.02 48 19 C50.31 19 52.62 19 55 19 C55 20.65 55 22.3 55 24 C55.66 24 56.32 24 57 24 C57.99 25.98 57.99 25.98 59 28 C59.33 28 59.66 28 60 28 C60 29.98 60 31.96 60 34 C60.66 34 61.32 34 62 34 C62 38.62 62 43.24 62 48 C57.545 48.495 57.545 48.495 53 49 C52.67 50.32 52.34 51.64 52 53 C55.3 53 58.6 53 62 53 C62 56.96 62 60.92 62 65 C61.34 65 60.68 65 60 65 C60 67.31 60 69.62 60 72 C59.01 72 58.02 72 57 72 C57 73.65 57 75.3 57 77 C56.01 77 55.02 77 54 77 C54 77.66 54 78.32 54 79 C53.34 79 52.68 79 52 79 C52 79.99 52 80.98 52 82 C50.02 82 48.04 82 46 82 C46 81.01 46 80.02 46 79 C44.02 79 42.04 79 40 79 C40.33 79.99 40.66 80.98 41 82 C40.67 82.66 40.34 83.32 40 84 C40.99 84 41.98 84 43 84 C43 84.99 43 85.98 43 87 C43.66 87 44.32 87 45 87 C44.505 88.98 44.505 88.98 44 91 C42.68 91 41.36 91 40 91 C40 91.99 40 92.98 40 94 C38.68 94 37.36 94 36 94 C36 94.66 36 95.32 36 96 C34.35 96 32.7 96 31 96 C31 96.66 31 97.32 31 98 C27.7 98 24.4 98 21 98 C21 98.99 21 99.98 21 101 C19.68 101 18.36 101 17 101 C17 97.7 17 94.4 17 91 C14.36 91 11.72 91 9 91 C9.33 91.66 9.66 92.32 10 93 C10.04022391 95.3329866 10.04320247 97.66706666 10 100 C7.525 100.495 7.525 100.495 5 101 C5 100.01 5 99.02 5 98 C2.03 98 -0.94 98 -4 98 C-4 97.34 -4 96.68 -4 96 C-5.65 96 -7.3 96 -9 96 C-9 95.34 -9 94.68 -9 94 C-10.65 94 -12.3 94 -14 94 C-14 93.01 -14 92.02 -14 91 C-14.99 91 -15.98 91 -17 91 C-17 90.34 -17 89.68 -17 89 C-17.66 89 -18.32 89 -19 89 C-19 87.35 -19 85.7 -19 84 C-18.360625 83.731875 -17.72125 83.46375 -17.0625 83.1875 C-14.66868314 82.11332248 -14.66868314 82.11332248 -14 79 C-16.475 79.495 -16.475 79.495 -19 80 C-19 80.66 -19 81.32 -19 82 C-21.31 82 -23.62 82 -26 82 C-26 81.01 -26 80.02 -26 79 C-26.66 79 -27.32 79 -28 79 C-28 78.34 -28 77.68 -28 77 C-28.99 77 -29.98 77 -31 77 C-31 75.35 -31 73.7 -31 72 C-31.99 72 -32.98 72 -34 72 C-34 70.02 -34 68.04 -34 66 C-34.66 65.67 -35.32 65.34 -36 65 C-36 61.04 -36 57.08 -36 53 C-32.7 53 -29.4 53 -26 53 C-26 51.35 -26 49.7 -26 48 C-29.3 48 -32.6 48 -36 48 C-36 43.38 -36 38.76 -36 34 C-35.01 34 -34.02 34 -33 34 C-33.33 32.35 -33.66 30.7 -34 29 C-33.01 29 -32.02 29 -31 29 C-31 27.35 -31 25.7 -31 24 C-30.34 23.67 -29.68 23.34 -29 23 C-28.34786708 20.97536745 -28.34786708 20.97536745 -28 19 C-26.02 19 -24.04 19 -22 19 C-21.34 20.65 -20.68 22.3 -20 24 C-18.68 24 -17.36 24 -16 24 C-16 23.34 -16 22.68 -16 22 C-15.34 22 -14.68 22 -14 22 C-14 21.01 -14 20.02 -14 19 C-15.65 18.34 -17.3 17.68 -19 17 C-19 14.69 -19 12.38 -19 10 C-18.01 10 -17.02 10 -16 10 C-16 9.34 -16 8.68 -16 8 C-14.68 8 -13.36 8 -12 8 C-12 7.01 -12 6.02 -12 5 C-10.35 5 -8.7 5 -7 5 C-7 4.34 -7 3.68 -7 3 C-4.69 3 -2.38 3 0 3 C0 2.01 0 1.02 0 0 Z M7 29 C7 29.66 7 30.32 7 31 C5.35 31 3.7 31 2 31 C2 31.99 2 32.98 2 34 C0.35 34.66 -1.3 35.32 -3 36 C-3 36.99 -3 37.98 -3 39 C-3.66 39 -4.32 39 -5 39 C-5 40.32 -5 41.64 -5 43 C-5.66 43 -6.32 43 -7 43 C-7.33 47.62 -7.66 52.24 -8 57 C-7.01 57.33 -6.02 57.66 -5 58 C-4.855625 58.78375 -4.71125 59.5675 -4.5625 60.375 C-4.12201075 62.96421018 -4.12201075 62.96421018 -3 65 C-2.01 65 -1.02 65 0 65 C0 65.66 0 66.32 0 67 C0.639375 67.309375 1.27875 67.61875 1.9375 67.9375 C4 69 4 69 5 70 C7.86267567 70.07325168 10.700719 70.09238205 13.5625 70.0625 C14.77196289 70.05573242 14.77196289 70.05573242 16.00585938 70.04882812 C18.00393756 70.03700518 20.00197783 70.01906914 22 70 C22 69.01 22 68.02 22 67 C23.65 67 25.3 67 27 67 C27 66.34 27 65.68 27 65 C27.66 65 28.32 65 29 65 C29 64.01 29 63.02 29 62 C29.66 62 30.32 62 31 62 C31 60.68 31 59.36 31 58 C31.99 58 32.98 58 34 58 C34 53.05 34 48.1 34 43 C33.01 43 32.02 43 31 43 C31 41.68 31 40.36 31 39 C30.34 39 29.68 39 29 39 C29 38.01 29 37.02 29 36 C28.34 36 27.68 36 27 36 C27 35.34 27 34.68 27 34 C26.01 34 25.02 34 24 34 C24 33.01 24 32.02 24 31 C22.35 31 20.7 31 19 31 C19 30.34 19 29.68 19 29 C15.04 29 11.08 29 7 29 Z " fill="#FA7275" transform="translate(157,113)"/>
<path d="M0 0 C1.98 0 3.96 0 6 0 C6 0.66 6 1.32 6 2 C7.1446875 1.9071875 7.1446875 1.9071875 8.3125 1.8125 C11 2 11 2 12.8125 3.375 C14 5 14 5 14 7 C14.66 7 15.32 7 16 7 C16 7.66 16 8.32 16 9 C16.99 9.33 17.98 9.66 19 10 C19 13.63 19 17.26 19 21 C18.01 21 17.02 21 16 21 C16.061875 21.763125 16.12375 22.52625 16.1875 23.3125 C16 26 16 26 14.6875 27.8125 C13 29 13 29 10 29 C10 29.66 10 30.32 10 31 C7.72942623 31.05398987 5.45848712 31.09278742 3.1875 31.125 C1.29064453 31.15980469 1.29064453 31.15980469 -0.64453125 31.1953125 C-4 31 -4 31 -7 29 C-7 28.01 -7 27.02 -7 26 C-7.99 26 -8.98 26 -10 26 C-10 24.35 -10 22.7 -10 21 C-10.66 21 -11.32 21 -12 21 C-12 17.04 -12 13.08 -12 9 C-11.34 9 -10.68 9 -10 9 C-10 8.34 -10 7.68 -10 7 C-8.35 6.34 -6.7 5.68 -5 5 C-5 4.01 -5 3.02 -5 2 C-3.35 2 -1.7 2 0 2 C0 1.34 0 0.68 0 0 Z " fill="#FA7275" transform="translate(167,147)"/>
<path d="M0 0 C8.58 0 17.16 0 26 0 C26 7.92 26 15.84 26 24 C22.08125 24.020625 18.1625 24.04125 14.125 24.0625 C12.27285889 24.07615601 12.27285889 24.07615601 10.38330078 24.09008789 C8.92899658 24.09383423 8.92899658 24.09383423 7.4453125 24.09765625 C6.45031738 24.10289307 5.45532227 24.10812988 4.43017578 24.11352539 C2 24 2 24 0 23 C0 15.41 0 7.82 0 0 Z " fill="#FA7275" transform="translate(222,298)"/>
<path d="M0 0 C8.58 0 17.16 0 26 0 C26 7.59 26 15.18 26 23 C23.57933169 24.21033415 22.01833058 24.12922803 19.31640625 24.1328125 C18.38892578 24.13410156 17.46144531 24.13539063 16.50585938 24.13671875 C15.53455078 24.13285156 14.56324219 24.12898438 13.5625 24.125 C12.11133789 24.13080078 12.11133789 24.13080078 10.63085938 24.13671875 C9.70208984 24.13542969 8.77332031 24.13414062 7.81640625 24.1328125 C6.96506104 24.13168457 6.11371582 24.13055664 5.23657227 24.12939453 C3 24 3 24 0 23 C0 15.41 0 7.82 0 0 Z " fill="#FA7275" transform="translate(90,298)"/>
<path d="M0 0 C6.93 0 13.86 0 21 0 C21 7.59 21 15.18 21 23 C14 23 7 23 0 23 C0 15.41 0 7.82 0 0 Z " fill="#FA7275" transform="translate(260,207)"/>
<path d="M0 0 C6.93 0 13.86 0 21 0 C21 7.26 21 14.52 21 22 C15.39 22 9.78 22 4 22 C3.67 22.66 3.34 23.32 3 24 C2.34 24 1.68 24 1 24 C-0.25248502 21.49502996 -0.11374406 19.79146726 -0.09765625 16.9921875 C-0.09443359 16.00605469 -0.09121094 15.01992187 -0.08789062 14.00390625 C-0.07951172 12.97136719 -0.07113281 11.93882813 -0.0625 10.875 C-0.05798828 9.83472656 -0.05347656 8.79445313 -0.04882812 7.72265625 C-0.03701967 5.14841313 -0.01908385 2.57419947 0 0 Z " fill="#FA7275" transform="translate(260,92)"/>
<path d="" fill="#FA7275" transform="translate(0,0)"/>
</svg>
