<?xml version="1.0" encoding="UTF-8"?>
<svg version="1.1" xmlns="http://www.w3.org/2000/svg" width="933" height="342">
<path d="M0 0 C109.56 0 219.12 0 332 0 C332 112.2 332 224.4 332 340 C222.44 340 112.88 340 0 340 C0 300.4 0 260.8 0 220 C-0.66 220 -1.32 220 -2 220 C-2 187 -2 154 -2 120 C-1.34 120 -0.68 120 0 120 C0 80.4 0 40.8 0 0 Z M13 13 C13 48.31 13 83.62 13 120 C31.315 120.495 31.315 120.495 50 121 C58.93628582 122.98584129 66.77235136 124.96699085 72.125 132.875 C75.51015026 139.97056406 75.1294124 149.05882075 73.40625 156.59765625 C71.03867341 162.28641668 66.20261509 165.06519149 61 168 C63.27010112 169.74773376 65.42056375 171.23265229 67.9375 172.625 C73.26918002 176.75977226 75.96174418 182.385133 77 189 C77.58379689 196.44341032 75.86422398 203.0059433 71.9375 209.3125 C56.49820514 223.43781231 31.65773798 219.41694569 13 220 C13 254.98 13 289.96 13 326 C113.98 326 214.96 326 319 326 C319 222.71 319 119.42 319 13 C218.02 13 117.04 13 13 13 Z M23 140 C23 146.6 23 153.2 23 160 C26.01125 160.061875 29.0225 160.12375 32.125 160.1875 C33.06230957 160.21481201 33.99961914 160.24212402 34.96533203 160.27026367 C40.07191325 160.32084004 43.58493545 159.86420327 48 157 C50.38699285 153.85350943 50.47251366 150.85886154 50 147 C47.53974294 142.99069221 45.46474353 141.31804929 41 140 C37.88946323 139.76757227 34.80436211 139.81153385 31.6875 139.875 C27.3871875 139.936875 27.3871875 139.936875 23 140 Z M23 178 C23 184.93 23 191.86 23 199 C26.56295812 199.08104454 30.12406707 199.14052442 33.6875 199.1875 C34.69490234 199.21263672 35.70230469 199.23777344 36.74023438 199.26367188 C43.90654894 199.44186012 43.90654894 199.44186012 50 196 C52.46938219 192.29592671 52.66289195 189.29621114 52 185 C50.05877812 181.42815175 48.75474444 180.27725306 44.9375 178.875 C40.48916038 177.69690092 36.1332536 177.77999491 31.5625 177.875 C28.736875 177.91625 25.91125 177.9575 23 178 Z " fill="#FFFFFF" transform="translate(452,2)"/>
<path d="M0 0 C11.67938165 8.00096972 18.2888717 18.24382147 21.68359375 31.94140625 C23.96855929 46.15672283 21.8784824 60.44008377 14.125 72.6875 C5.89252991 83.49862317 -4.48949949 90.78834328 -17.875 93.6875 C-34.84998688 95.00346081 -49.10423674 93.43944729 -62.875 82.6875 C-73.12950759 73.50049636 -79.1712923 61.19193673 -80.08984375 47.48046875 C-80.51700256 31.98314706 -76.63386086 18.05385264 -65.9140625 6.53125 C-47.78565704 -9.86071815 -20.89969636 -12.55678645 0 0 Z M-46.875 21.6875 C-45.04215557 22.81266085 -45.04215557 22.81266085 -42.875 23.6875 C-41.885 23.3575 -40.895 23.0275 -39.875 22.6875 C-39.875 21.3675 -39.875 20.0475 -39.875 18.6875 C-37.235 18.6875 -34.595 18.6875 -31.875 18.6875 C-31.875 19.3475 -31.875 20.0075 -31.875 20.6875 C-27.915 20.0275 -23.955 19.3675 -19.875 18.6875 C-20.205 19.6775 -20.535 20.6675 -20.875 21.6875 C-17.49481469 22.72755702 -14.3969721 22.76754482 -10.875 22.6875 C-15.97014969 17.1556232 -20.12632328 15.38514269 -27.48046875 14.7265625 C-35.10349361 14.60220647 -40.77259403 17.33101399 -46.875 21.6875 Z M-9.875 23.6875 C-10.535 25.9975 -11.195 28.3075 -11.875 30.6875 C-9.565 31.0175 -7.255 31.3475 -4.875 31.6875 C-6.195 29.0475 -7.515 26.4075 -8.875 23.6875 C-9.205 23.6875 -9.535 23.6875 -9.875 23.6875 Z M-50.875 27.6875 C-51.205 29.0075 -51.535 30.3275 -51.875 31.6875 C-50.555 31.6875 -49.235 31.6875 -47.875 31.6875 C-48.535 30.3675 -49.195 29.0475 -49.875 27.6875 C-50.205 27.6875 -50.535 27.6875 -50.875 27.6875 Z M-38.875 31.6875 C-41.30902391 34.92610403 -42.55380782 38.25997919 -43.4375 42.1875 C-42.49674147 46.36864902 -40.85294468 49.58297602 -37.875 52.6875 C-33.90808781 54.98735646 -30.09093952 56.24335015 -25.5546875 55.10546875 C-21.69012899 53.31579313 -19.06374132 51.40967086 -16.875 47.6875 C-16.0594605 42.34608361 -16.02843165 37.34807638 -18.5 32.5 C-21.32208004 30.34630734 -23.36454758 29.92684903 -26.875 29.6875 C-26.875 29.0275 -26.875 28.3675 -26.875 27.6875 C-31.79505298 27.6875 -34.91707611 28.77583058 -38.875 31.6875 Z M-4.875 33.6875 C-4.875 35.3375 -4.875 36.9875 -4.875 38.6875 C-6.855 39.6775 -6.855 39.6775 -8.875 40.6875 C-8.38 41.6775 -8.38 41.6775 -7.875 42.6875 C-6.885 42.6875 -5.895 42.6875 -4.875 42.6875 C-4.875 44.9975 -4.875 47.3075 -4.875 49.6875 C-5.535 49.6875 -6.195 49.6875 -6.875 49.6875 C-6.875 50.3475 -6.875 51.0075 -6.875 51.6875 C-7.535 51.6875 -8.195 51.6875 -8.875 51.6875 C-9.37 50.6975 -9.37 50.6975 -9.875 49.6875 C-9.854375 50.945625 -9.83375 52.20375 -9.8125 53.5 C-9.76613917 56.32801087 -9.95807039 57.93671116 -10.875 60.6875 C-12.525 60.6875 -14.175 60.6875 -15.875 60.6875 C-15.875 60.0275 -15.875 59.3675 -15.875 58.6875 C-16.535 58.6875 -17.195 58.6875 -17.875 58.6875 C-18.205 60.9975 -18.535 63.3075 -18.875 65.6875 C-21.515 65.6875 -24.155 65.6875 -26.875 65.6875 C-26.875 64.6975 -26.875 63.7075 -26.875 62.6875 C-27.865 62.6875 -28.855 62.6875 -29.875 62.6875 C-30.535 63.6775 -31.195 64.6675 -31.875 65.6875 C-35.5 65.875 -35.5 65.875 -38.875 65.6875 C-38.545 64.0375 -38.215 62.3875 -37.875 60.6875 C-41.175 60.6875 -44.475 60.6875 -47.875 60.6875 C-47.545 58.0475 -47.215 55.4075 -46.875 52.6875 C-48.855 52.3575 -50.835 52.0275 -52.875 51.6875 C-51.90355559 58.23318492 -48.44099772 63.67135893 -43.25 67.75 C-40.68045273 68.93227769 -40.68045273 68.93227769 -36.875 68.6875 C-36.875 69.3475 -36.875 70.0075 -36.875 70.6875 C-28.35157015 71.7632727 -22.74290222 71.62145111 -14.875 67.6875 C-14.545 66.6975 -14.215 65.7075 -13.875 64.6875 C-13.24851562 64.53152344 -12.62203125 64.37554687 -11.9765625 64.21484375 C-9.24870193 63.53034342 -8.71946838 62.60588963 -7.25 60.25 C-2.30794204 51.66241163 -2.65585643 43.27589942 -3.875 33.6875 C-4.205 33.6875 -4.535 33.6875 -4.875 33.6875 Z M-53.875 39.6875 C-53.875 41.3375 -53.875 42.9875 -53.875 44.6875 C-52.555 44.0275 -51.235 43.3675 -49.875 42.6875 C-50.85350195 41.66645449 -51.85480427 40.6668879 -52.875 39.6875 C-53.205 39.6875 -53.535 39.6875 -53.875 39.6875 Z " fill="#FFFFFF" transform="translate(618.875,128.3125)"/>
<path d="M0 0 C9.5381799 -1.71969445 19.67134922 -3.22188415 29 0 C36.7874024 5.73597592 41.38263049 15.95291268 45.58081055 24.40795898 C46.738453 27.10662622 46.738453 27.10662622 49 28 C49.40206665 26.92540527 49.40206665 26.92540527 49.81225586 25.82910156 C51.01503311 22.96419247 52.41859376 20.40503729 54.00390625 17.734375 C54.57947266 16.76242188 55.15503906 15.79046875 55.74804688 14.7890625 C56.64620117 13.28472656 56.64620117 13.28472656 57.5625 11.75 C58.46645508 10.22246094 58.46645508 10.22246094 59.38867188 8.6640625 C63.85498768 1.14501232 63.85498768 1.14501232 65 0 C67.07262076 -0.08767112 69.14820294 -0.10695873 71.22265625 -0.09765625 C72.48271484 -0.09443359 73.74277344 -0.09121094 75.04101562 -0.08789062 C76.38151109 -0.07953403 77.72200588 -0.07106907 79.0625 -0.0625 C80.40689942 -0.0574866 81.7513006 -0.05292342 83.09570312 -0.04882812 C86.39717941 -0.03699488 89.69856803 -0.02050971 93 0 C91.6518016 3.63777613 90.0139723 6.79160058 87.9453125 10.0703125 C87.33574707 11.04073486 86.72618164 12.01115723 86.09814453 13.01098633 C85.44700684 14.03861084 84.79586914 15.06623535 84.125 16.125 C83.45968262 17.18291748 82.79436523 18.24083496 82.10888672 19.33081055 C78.87869577 24.46281399 75.63087859 29.58348268 72.375 34.69921875 C71.82440918 35.56595215 71.27381836 36.43268555 70.70654297 37.32568359 C69.67238352 38.95179476 68.63507466 40.57590838 67.59423828 42.19775391 C67.13259277 42.92269043 66.67094727 43.64762695 66.1953125 44.39453125 C65.59227295 45.33582886 65.59227295 45.33582886 64.97705078 46.29614258 C63.84133881 48.14665443 63.84133881 48.14665443 63 51 C63.96205771 53.08164158 63.96205771 53.08164158 65.5168457 55.24023438 C66.37817863 56.51670837 66.37817863 56.51670837 67.25691223 57.81896973 C67.89013901 58.73464722 68.52336578 59.65032471 69.17578125 60.59375 C69.81613815 61.53682007 70.45649506 62.47989014 71.11625671 63.45153809 C73.17204178 66.47438639 75.24201416 69.48720686 77.3125 72.5 C78.6982138 74.53190577 80.08299165 76.56445018 81.46679688 78.59765625 C84.51979975 83.08007593 87.58182 87.55617661 90.65180969 92.02697754 C94 96.92691981 94 96.92691981 94 100 C84.45492365 101.72093785 74.33926172 103.20678808 65 100 C56.60391483 93.90684465 51.0804143 82.26052657 47 73 C47 72.34 47 71.68 47 71 C46.34 71 45.68 71 45 71 C43.96413504 73.58553544 42.93381418 76.17172905 41.93212891 78.77075195 C38.79603237 86.49032534 35.4505642 94.49978429 29 100 C20.01130487 102.94506185 10.17873686 101.48875333 1 100 C1.53828804 96.68357718 2.2094913 94.25124878 4.08203125 91.4609375 C4.51370605 90.80730225 4.94538086 90.15366699 5.39013672 89.48022461 C5.8595166 88.78550049 6.32889648 88.09077637 6.8125 87.375 C7.81229674 85.86400775 8.81095141 84.35225933 9.80859375 82.83984375 C10.59145752 81.65817627 10.59145752 81.65817627 11.39013672 80.45263672 C14.10589138 76.31516761 16.73963568 72.12645976 19.375 67.9375 C19.86202393 67.16519043 20.34904785 66.39288086 20.85083008 65.59716797 C21.78368764 64.116955 22.7121552 62.63396427 23.63574219 61.14794922 C24.55993441 59.69285918 25.51502814 58.25702235 26.49707031 56.84033203 C26.96467773 56.15181152 27.43228516 55.46329102 27.9140625 54.75390625 C28.33896973 54.15006104 28.76387695 53.54621582 29.20166016 52.92407227 C30.3101627 50.25247943 29.75202988 48.77128095 29 46 C27.79601034 43.68808201 27.79601034 43.68808201 26.22436523 41.42504883 C25.64383896 40.55096878 25.06331268 39.67688873 24.4651947 38.77632141 C23.83601639 37.84595566 23.20683807 36.9155899 22.55859375 35.95703125 C21.91632339 34.99222336 21.27405304 34.02741547 20.61231995 33.03337097 C18.56158793 29.95463259 16.50035539 26.88312593 14.4375 23.8125 C12.37228723 20.73039 10.30942785 17.64678557 8.25196838 14.55949402 C6.97141187 12.6387246 5.68614789 10.72108404 4.39585876 8.80683899 C3.81848465 7.94221542 3.24111053 7.07759186 2.64624023 6.18676758 C1.87799171 5.04356804 1.87799171 5.04356804 1.09422302 3.87727356 C0 2 0 2 0 0 Z " fill="#FFFFFF" transform="translate(648,122)"/>
<path d="M0 0 C4.29 0 8.58 0 13 0 C18.48480403 13.90221864 23.68218208 27.90111101 28.8125 41.9375 C30.39897735 46.27371678 31.98632949 50.60961256 33.57421875 54.9453125 C33.95852051 55.99505753 34.34282227 57.04480255 34.73876953 58.12635803 C36.93261961 64.11193949 39.14698559 70.08906868 41.39453125 76.0546875 C41.63692032 76.69992874 41.87930939 77.34516998 42.12904358 78.00996399 C43.1980245 80.85522729 44.27252691 83.69809032 45.35864258 86.53686523 C45.71724365 87.49020752 46.07584473 88.4435498 46.4453125 89.42578125 C46.74969238 90.22411377 47.05407227 91.02244629 47.36767578 91.8449707 C48 94 48 94 48 98 C44.37 98 40.74 98 37 98 C35.66058446 94.56475792 34.32825585 91.12705443 33 87.6875 C32.6184375 86.71103516 32.236875 85.73457031 31.84375 84.72851562 C31.4828125 83.79072266 31.121875 82.85292969 30.75 81.88671875 C30.24726563 80.59060669 30.24726563 80.59060669 29.734375 79.26831055 C29 77 29 77 29 74 C14.48 74.33 -0.04 74.66 -15 75 C-17.59084491 82.19408517 -17.59084491 82.19408517 -20.17553711 89.39038086 C-20.6590564 90.72661499 -20.6590564 90.72661499 -21.15234375 92.08984375 C-21.48226318 93.00628662 -21.81218262 93.92272949 -22.15209961 94.86694336 C-23 97 -23 97 -24 98 C-25.85287502 98.07226502 -27.70833878 98.0838122 -29.5625 98.0625 C-31.08037109 98.04896484 -31.08037109 98.04896484 -32.62890625 98.03515625 C-33.41136719 98.02355469 -34.19382813 98.01195312 -35 98 C-34.35312887 92.87354631 -32.82593433 88.41863471 -31 83.625 C-30.69208023 82.80302124 -30.38416046 81.98104248 -30.06690979 81.13415527 C-29.04944814 78.42092421 -28.02462487 75.71053309 -27 73 C-25.92198478 70.12960302 -24.84595984 67.25846438 -23.76991272 64.3873291 C-23.01806435 62.38179788 -22.26556046 60.3765123 -21.51243591 58.37145996 C-17.53745591 47.78576673 -13.61390145 37.18121447 -9.69750977 26.57373047 C-8.57331687 23.52929325 -7.44789949 20.48531094 -6.32226562 17.44140625 C-5.63275428 15.57554235 -4.94329824 13.70965801 -4.25390625 11.84375 C-3.93797012 10.98946411 -3.622034 10.13517822 -3.29652405 9.25500488 C-3.0073259 8.47153687 -2.71812775 7.68806885 -2.42016602 6.88085938 C-2.04288109 5.85961975 -2.04288109 5.85961975 -1.65797424 4.81774902 C-1.07992248 3.22079742 -0.53706594 1.61119782 0 0 Z M6 15 C3.43427266 21.95921457 0.87103798 28.91934341 -1.69042969 35.88012695 C-2.56289616 38.25013236 -3.43594232 40.61992446 -4.30957031 42.98950195 C-5.56205705 46.38697873 -6.81248656 49.78520635 -8.0625 53.18359375 C-8.45622803 54.25024765 -8.84995605 55.31690155 -9.25561523 56.4158783 C-9.61598877 57.39681961 -9.9763623 58.37776093 -10.34765625 59.38842773 C-10.82730835 60.69081642 -10.82730835 60.69081642 -11.31665039 62.01951599 C-12.05436193 63.80837481 -12.05436193 63.80837481 -12 65 C0.21 65 12.42 65 25 65 C23.0492073 58.49735767 21.0528056 52.13676517 18.71484375 45.78125 C18.41308731 44.95669312 18.11133087 44.13213623 17.8004303 43.28259277 C17.16920635 41.56119733 16.53641644 39.84037534 15.90209961 38.12011719 C14.93041937 35.48076706 13.96798258 32.83815918 13.00585938 30.1953125 C12.38857829 28.51542006 11.77075938 26.83572512 11.15234375 25.15625 C10.86584457 24.3667395 10.5793454 23.577229 10.28416443 22.76379395 C8.74408856 18.51931341 8.74408856 18.51931341 6 15 Z " fill="#FFFFFF" transform="translate(251,124)"/>
<path d="M0 0 C3.92397117 3.63417689 6.24184077 7.66709446 7.6875 12.8125 C7.6875 14.1325 7.6875 15.4525 7.6875 16.8125 C3.7275 16.8125 -0.2325 16.8125 -4.3125 16.8125 C-4.869375 15.575 -5.42625 14.3375 -6 13.0625 C-8.39591808 8.30429076 -11.07059231 5.90611351 -15.875 3.5625 C-23.37740392 1.92561187 -30.94067049 1.57285088 -37.69140625 5.62890625 C-41.03025411 8.06666746 -42.88764759 10.05113272 -43.875 14.14453125 C-44.66623932 19.64199607 -44.33156303 22.98199916 -41.3125 27.8125 C-41.3125 28.4725 -41.3125 29.1325 -41.3125 29.8125 C-38.03331909 31.5550599 -34.6855662 32.82205099 -31.1875 34.0625 C-29.95773438 34.49949219 -28.72796875 34.93648437 -27.4609375 35.38671875 C-24.52046154 36.41039245 -21.56678317 37.38250788 -18.6015625 38.33203125 C-17.80637207 38.58887695 -17.01118164 38.84572266 -16.19189453 39.11035156 C-14.64080379 39.60881413 -13.08716763 40.09944481 -11.53076172 40.58105469 C-3.70087574 43.10186192 1.92404346 47.09632214 6.6875 53.8125 C9.69777143 59.83304286 9.69438092 67.14828385 7.9296875 73.5703125 C4.79573667 81.83703319 0.57958194 86.81028763 -7.3125 90.8125 C-16.58357916 94.73120356 -30.07891594 94.35784119 -39.5625 91.25 C-46.80431336 88.00994222 -52.39184851 83.18343794 -55.63671875 75.87890625 C-56.73248274 72.52827533 -57.06164877 69.32441722 -57.3125 65.8125 C-53.3525 65.8125 -49.3925 65.8125 -45.3125 65.8125 C-44.961875 67.17375 -44.61125 68.535 -44.25 69.9375 C-42.54406653 75.07147041 -39.87341266 77.97356457 -35.3125 80.8125 C-29.12980294 83.84160661 -21.74655782 83.80821825 -15.0859375 82.3125 C-10.11314693 80.38472216 -6.55752227 77.06539743 -4 72.4375 C-2.78281839 67.79007932 -2.81824831 64.1391756 -4.5 59.625 C-10.09466059 50.94363012 -20.55971459 48.98171814 -29.9375 46.3125 C-39.03183997 43.71496371 -48.37767739 40.92995731 -53.5625 32.375 C-57.03453505 25.30692865 -57.38354099 17.75738246 -55.1875 10.1875 C-52.44511636 2.8998694 -47.67825564 -1.7006059 -40.78125 -5.18359375 C-27.11023099 -10.74285306 -11.55879476 -9.14099182 0 0 Z " fill="#FFFFFF" transform="translate(195.3125,129.1875)"/>
<path d="M0 0 C17.16 0 34.32 0 52 0 C52 3.3 52 6.6 52 10 C38.47 10 24.94 10 11 10 C11 21.55 11 33.1 11 45 C23.21 45 35.42 45 48 45 C48 47.97 48 50.94 48 54 C35.79 54 23.58 54 11 54 C11 65.88 11 77.76 11 90 C24.53 90 38.06 90 52 90 C52 93.3 52 96.6 52 100 C34.84 100 17.68 100 0 100 C0 67 0 34 0 0 Z " fill="#FFFFFF" transform="translate(383,122)"/>
<path d="M0 0 C17.82 0 35.64 0 54 0 C54 2.97 54 5.94 54 9 C39.81 9 25.62 9 11 9 C11 20.55 11 32.1 11 44 C22.88 44 34.76 44 47 44 C47 46.97 47 49.94 47 53 C35.12 53 23.24 53 11 53 C11 68.18 11 83.36 11 99 C7.37 99 3.74 99 0 99 C0 66.33 0 33.66 0 0 Z " fill="#FFFFFF" transform="translate(314,123)"/>
<path d="M0 0 C3.45081438 2.34162405 4.55353703 3.30341664 5.5 7.5625 C5.81977363 12.1992177 5.90106015 14.80622782 2.875 18.4375 C-0.96522357 21.60003705 -4.44457306 21.35912239 -9.25 21.1875 C-13.20125774 19.87041409 -14.15219061 18.80441275 -16.25 15.1875 C-16.99391712 10.2157767 -17.35711885 5.79091351 -14.4375 1.5625 C-9.95726158 -1.25364987 -5.01507986 -1.81100106 0 0 Z " fill="#FFFFFF" transform="translate(595.25,159.8125)"/>
<path d="M0 0 C0.99 0 1.98 0 3 0 C3 0.66 3 1.32 3 2 C2.01 2 1.02 2 0 2 C0 1.34 0 0.68 0 0 Z " fill="#FFFFFF" transform="translate(603,246)"/>
</svg>
